<svg width="94.24008px" height="94.24008px" viewBox="-15.9 0 94.24008 94.24008" xmlns="http://www.w3.org/2000/svg"><title>Asset 17</title><g id="Layer_2" data-name="Layer 2"><g id="Layer_1-2" data-name="Layer 1"><g id="Backpack_Icon" data-name="Backpack Icon"><path id="Bottom" d="M0,18.29568A12.78183,12.78183,0,0,1,12.78186,5.51386H49.65431A12.78186,12.78186,0,0,1,62.43616,18.29568V86.95436a7.28568,7.28568,0,0,1-7.28571,7.28571H7.28567A7.28566,7.28566,0,0,1,0,86.95436Z" style="fill:#c3c3c3"/><path id="Top" d="M49.65427,5.51388H35.80521v-.863a4.65083,4.65083,0,1,0-9.30165,0v.863H12.78189A12.78183,12.78183,0,0,0,0,18.29567v11.491A12.78179,12.78179,0,0,0,12.78189,42.56853H49.65427A12.78179,12.78179,0,0,0,62.43616,29.78664v-11.491A12.78183,12.78183,0,0,0,49.65427,5.51388ZM28.54225,4.856a2.61213,2.61213,0,1,1,5.22426,0v.65787H28.54225Z" style="fill:#7b7b7b"/><g id="Pocket"><path id="Bottom-2" data-name="Bottom" d="M7.77275,65.23911A7.6691,7.6691,0,0,1,15.44184,57.57H46.86713A7.66894,7.66894,0,0,1,54.536,65.23911V80.92952a7.669,7.669,0,0,1-7.66891,7.66911H15.44184a7.66912,7.66912,0,0,1-7.66909-7.66911Z" style="fill:#7b7b7b"/><path id="Top-2" data-name="Top" d="M7.77275,61.40458A3.83454,3.83454,0,0,1,11.6073,57.57H50.70148A3.83443,3.83443,0,0,1,54.536,61.40458V66.437a6.39076,6.39076,0,0,1-6.39073,6.3909H14.16365a6.39091,6.39091,0,0,1-6.3909-6.3909Z" style="fill:#ff7878"/></g><path id="Logo" d="M26.50353,76.79943a.63909.63909,0,0,1,.63909-.63909h8.15094a.63909.63909,0,0,1,.63909.63909v4.748a.6391.6391,0,0,1-.63909.6391H27.14262a.6391.6391,0,0,1-.63909-.6391Z" style="fill:#fff"/><g id="Straps"><path id="Right_Strap" data-name="Right Strap" d="M47.7816,15.89982a.38351.38351,0,0,0,.38343-.38352V14.48824a.38345.38345,0,0,0-.38343-.38352H45.10694V5.51388h-3.8226v8.59084H38.48229a.38352.38352,0,0,0-.38352.38352V15.5163a.38359.38359,0,0,0,.38352.38352h2.80205v20.001H38.48229a.38351.38351,0,0,0-.38352.38343v1.02815a.3836.3836,0,0,0,.38352.38353h2.80205V67.05832H38.48229a.38359.38359,0,0,0-.38352.38352V68.4699a.38352.38352,0,0,0,.38352.38352h2.80205V94.24008h3.8226V68.85342H47.7816a.38345.38345,0,0,0,.38343-.38352V67.44184a.38351.38351,0,0,0-.38343-.38352H45.10694V37.69588H47.7816a.38352.38352,0,0,0,.38343-.38353V36.2842a.38343.38343,0,0,0-.38343-.38343H45.10694v-20.001Z" style="fill:#fab96f"/><path id="Left_Strap" data-name="Left Strap" d="M23.82647,15.89982A.38359.38359,0,0,0,24.21,15.5163V14.48824a.38353.38353,0,0,0-.38353-.38352h-2.802V5.51388H17.20182v8.59084H14.52717a.38345.38345,0,0,0-.38343.38352V15.5163a.38351.38351,0,0,0,.38343.38352h2.67465v20.001H14.52717a.38343.38343,0,0,0-.38343.38343v1.02815a.38352.38352,0,0,0,.38343.38353h2.67465V67.05832H14.52717a.38351.38351,0,0,0-.38343.38352V68.4699a.38345.38345,0,0,0,.38343.38352h2.67465V94.24008h3.82261V68.85342h2.802A.38353.38353,0,0,0,24.21,68.4699V67.44184a.38359.38359,0,0,0-.38353-.38352h-2.802V37.69588h2.802a.3836.3836,0,0,0,.38353-.38353V36.2842a.38351.38351,0,0,0-.38353-.38343h-2.802v-20.001Z" style="fill:#fab96f"/></g><g id="Clasps"><g id="Top_Right_Clasp" data-name="Top Right Clasp"><path id="Shape" d="M39.8839,43.72282a.38345.38345,0,0,0-.38345.38346V48.7245a.38345.38345,0,0,0,.38345.38346h.37988a.38346.38346,0,0,0,.38345-.38346V45.64479a.38346.38346,0,0,1,.38346-.38345H45.3606a.38346.38346,0,0,1,.38346.38345V48.7245a.38346.38346,0,0,0,.38345.38346h.37989a.38346.38346,0,0,0,.38345-.38346V44.10628a.38346.38346,0,0,0-.38345-.38346Z" style="fill:#fff"/><path id="Shape-2" data-name="Shape" d="M39.8839,49.748a.38345.38345,0,0,0-.38345.38346v.25886a.38344.38344,0,0,0,.38345.38345h6.6235a.38345.38345,0,0,0,.38345-.38345v-.25886a.38346.38346,0,0,0-.38345-.38346Z" style="fill:#fff"/></g><g id="Bottom_Right_Clasp" data-name="Bottom Right Clasp"><path id="Shape-3" data-name="Shape" d="M39.8839,69.87776a.38345.38345,0,0,0-.38345.38346v4.61822a.38345.38345,0,0,0,.38345.38346h.37988a.38346.38346,0,0,0,.38345-.38346V71.79983a.38346.38346,0,0,1,.38346-.38346H45.3606a.38346.38346,0,0,1,.38346.38346v3.07961a.38346.38346,0,0,0,.38345.38346h.37989a.38346.38346,0,0,0,.38345-.38346V70.26122a.38346.38346,0,0,0-.38345-.38346Z" style="fill:#fff"/><path id="Shape-4" data-name="Shape" d="M39.8839,75.90473a.38345.38345,0,0,0-.38345.38346v.25886a.38345.38345,0,0,0,.38345.38345h6.6235a.38345.38345,0,0,0,.38345-.38345v-.25886a.38346.38346,0,0,0-.38345-.38346Z" style="fill:#fff"/></g><g id="Top_Left_Clasp" data-name="Top Left Clasp"><path id="Shape-5" data-name="Shape" d="M15.80139,43.72282a.38345.38345,0,0,0-.38345.38346V48.7245a.38345.38345,0,0,0,.38345.38346h.37988a.38346.38346,0,0,0,.38345-.38346V45.64479a.38346.38346,0,0,1,.38346-.38345h4.32991a.38346.38346,0,0,1,.38346.38345V48.7245a.38346.38346,0,0,0,.38345.38346h.37989a.38346.38346,0,0,0,.38345-.38346V44.10628a.38346.38346,0,0,0-.38345-.38346Z" style="fill:#fff"/><path id="Shape-6" data-name="Shape" d="M15.80139,49.748a.38345.38345,0,0,0-.38345.38346v.25886a.38344.38344,0,0,0,.38345.38345h6.6235a.38345.38345,0,0,0,.38345-.38345v-.25886a.38346.38346,0,0,0-.38345-.38346Z" style="fill:#fff"/></g><g id="Bottom_Left_Clasp" data-name="Bottom Left Clasp"><path id="Shape-7" data-name="Shape" d="M15.92882,69.87776a.38346.38346,0,0,0-.38346.38346v4.61822a.38346.38346,0,0,0,.38346.38346h.37987a.38346.38346,0,0,0,.38346-.38346V71.79983a.38346.38346,0,0,1,.38345-.38346h4.32992a.38346.38346,0,0,1,.38346.38346v3.07961a.38346.38346,0,0,0,.38345.38346h.37989a.38346.38346,0,0,0,.38345-.38346V70.26122a.38346.38346,0,0,0-.38345-.38346Z" style="fill:#fff"/><path id="Shape-8" data-name="Shape" d="M15.92882,75.90473a.38346.38346,0,0,0-.38346.38346v.25886a.38346.38346,0,0,0,.38346.38345h6.6235a.38345.38345,0,0,0,.38345-.38345v-.25886a.38346.38346,0,0,0-.38345-.38346Z" style="fill:#fff"/></g></g></g></g></g></svg>