<svg width="92.86616px" height="92.86616px" viewBox="-12.88 0 92.86616 92.86616" xmlns="http://www.w3.org/2000/svg"><title>Asset 24</title><g id="Layer_2" data-name="Layer 2"><g id="Layer_1-2" data-name="Layer 1"><g id="Surfboard_Icon" data-name="Surfboard Icon"><path id="Board" d="M49.49167.02247c-8.75845,1.52536-15.70823,23.90715-15.70823,51.2939,0,27.387,6.94978,40.60954,15.70823,41.49718Zm1.76994,92.8039c8.82383-.76085,15.8474-13.97789,15.8474-41.51C67.109,23.7847,60.08544,1.31082,51.26161,0Z" style="fill:#ff7878"/><path id="Track_Pad" data-name="Track Pad" d="M42.35315,73.165a2.10812,2.10812,0,0,0-2.11329,2.4892C41.87844,83.88076,45.80024,87.767,50.37766,87.767s8.49922-3.88628,10.13781-12.11282a2.10812,2.10812,0,0,0-2.11329-2.4892Z" style="fill:#fff"/><path id="Wave" d="M42.90373,65.30864C10.48306,57.56971.90165,77.28963.00484,90.60992a2.14677,2.14677,0,0,0,2.19265,2.25624H34.54761c2.14959,0,3.17483-2.83855,1.82215-4.50937-6.945-8.57809-.74028-14.75391,6.69857-18.27844C45.12478,69.104,45.117,65.837,42.90373,65.30864Z" style="fill:#98c6e8"/></g></g></g></svg>