<svg width="91.86236px" height="91.86236px" viewBox="0 -15.36 91.86236 91.86236" xmlns="http://www.w3.org/2000/svg"><title>Asset 18</title><g id="Layer_2" data-name="Layer 2"><g id="Layer_1-2" data-name="Layer 1"><g id="Van_Icon" data-name="Van Icon"><g id="Wheels"><g id="Wheel_Left" data-name="Wheel Left"><path id="Left_Tire" data-name="Left Tire" d="M21.8946,53.97344a6.37806,6.37806,0,1,1-6.378-6.401A6.38954,6.38954,0,0,1,21.8946,53.97344Z" style="fill:#7b7b7b"/><path id="Left_Wheel" data-name="Left Wheel" d="M19.13435,53.97416A3.6174,3.6174,0,1,1,15.517,50.34375,3.62392,3.62392,0,0,1,19.13435,53.97416Z" style="fill:#c3c3c3"/></g><g id="Wheel_Right" data-name="Wheel Right"><path id="Tire_Right" data-name="Tire Right" d="M81.36994,53.93258l-.32567-3.31545a4.76813,4.76813,0,0,0-4.74543-4.30221H70.80479a4.76827,4.76827,0,0,0-4.74543,4.30221l-.32558,3.31545h1.45963a6.3823,6.3823,0,1,0,12.594,0Z" style="fill:#7b7b7b"/><path id="Wheel_Right-2" data-name="Wheel Right" d="M77.10684,54.7382a3.6174,3.6174,0,1,1-3.61738-3.63041A3.62392,3.62392,0,0,1,77.10684,54.7382Z" style="fill:#c3c3c3"/></g></g><g id="Roof"><path id="Front_Roof" data-name="Front Roof" d="M60.73352,15.27911a.95366.95366,0,0,1,.95366-.95366H73.86353a3.81462,3.81462,0,0,1,3.81454,3.81462v.86842a.95366.95366,0,0,1-.95367.95365H61.68718a.95365.95365,0,0,1-.95366-.95365Z" style="fill:#83ebc5"/><path id="Back_Roof" data-name="Back Roof" d="M56.63336,20.37135,45.57454,3.49271l1.10171-.52507a.95682.95682,0,0,0,.453-1.27231L46.58473.54456A.95045.95045,0,0,0,45.316.0929L9.95949,16.94413a.957.957,0,0,0-.453,1.27239L10.051,19.3672a.89848.89848,0,0,0,.07991.107L8.627,20.20363a.47684.47684,0,0,0,.20814.90585H56.23456A.4768.4768,0,0,0,56.63336,20.37135Z" style="fill:#83ebc5"/></g><path id="Van_Body" data-name="Van Body" d="M5.8762,20.92431a2.861,2.861,0,0,1,2.66545-1.82149H78.2755a2.861,2.861,0,0,1,2.66542,1.82149l3.94879,10.1259a2.90846,2.90846,0,0,1,.33073.04989l4.36869.91692A2.86085,2.86085,0,0,1,91.86236,34.817V50.10643a2.86087,2.86087,0,0,1-2.27323,2.79994l-4.36869.917a2.90478,2.90478,0,0,1-.44539.0581,2.86388,2.86388,0,0,1-.72369.09238H2.861A2.861,2.861,0,0,1,0,51.1128v-14.293a2.866,2.866,0,0,1,.09369-.729,2.87971,2.87971,0,0,1,.18988-.82561Z" style="fill:#edaea3"/><path id="Inside_of_the_van" data-name="Inside of the van" d="M42.17165,24.54315a2.861,2.861,0,0,1,2.861-2.861H57.5879a2.861,2.861,0,0,1,2.861,2.861V48.62878a2.861,2.861,0,0,1-2.861,2.861H45.03261a2.861,2.861,0,0,1-2.861-2.861Z" style="fill:#7b7b7b"/><path id="Back_Window" data-name="Back Window" d="M9.08577,23.18462a2.38416,2.38416,0,0,1,2.21512-1.50244H28.79544a2.3841,2.3841,0,0,1,2.34332,1.9447l1.64992,8.798a2.38417,2.38417,0,0,1-2.34333,2.82355H7.799a2.38413,2.38413,0,0,1-2.21512-3.26582Z" style="fill:#7b7b7b"/><g id="Doors"><g id="Sliding_Door" data-name="Sliding Door"><path id="Sliding_Door-2" data-name="Sliding Door" d="M15.49034,18.62483a2.861,2.861,0,0,0-2.82986,2.44033L10.42255,36.12055a2.86507,2.86507,0,0,0,.00073.85447v14.9018a2.861,2.861,0,0,0,2.861,2.861H41.86979a2.861,2.861,0,0,0,2.861-2.861V36.87091q0-.10551-.0076-.2091a2.88257,2.88257,0,0,0-.02938-.54126L42.45588,21.06516a2.86086,2.86086,0,0,0-2.82983-2.44033Z" style="fill:#ff7878"/><path id="Door_Window" data-name="Door Window" d="M15.35053,22.81792a2.38413,2.38413,0,0,1,2.35218-1.99508H37.60443a2.384,2.384,0,0,1,2.35209,1.99508L41.712,33.43113a2.38407,2.38407,0,0,1-2.35209,2.77318H15.9473a2.38414,2.38414,0,0,1-2.35218-2.77318Z" style="fill:#7b7b7b"/></g><g id="Front_Door" data-name="Front Door"><path id="Front_Door-2" data-name="Front Door" d="M66.44855,18.62225a3.14738,3.14738,0,0,0-3.12393,2.76369L61.7609,34.11723a3.15595,3.15595,0,0,0,.00917.8439,3.17353,3.17353,0,0,0-.03418.46549V50.77679a3.14738,3.14738,0,0,0,3.14739,3.14741H83.50122a3.14737,3.14737,0,0,0,3.14741-3.14741V35.42662a3.13744,3.13744,0,0,0-.24479-1.2192,3.1684,3.1684,0,0,0-.23333-.92185L80.841,20.55427a3.14733,3.14733,0,0,0-2.90327-1.932Z" style="fill:#ff7878"/><path id="Front_Window" data-name="Front Window" d="M66.30145,25.38225a2.38413,2.38413,0,0,1,2.36407-2.07542H75.821a2.38411,2.38411,0,0,1,2.22411,1.52544l2.47462,6.40957a2.38412,2.38412,0,0,1-2.22416,3.24284H67.82849a2.38413,2.38413,0,0,1-2.36406-2.69286Z" style="fill:#7b7b7b"/></g></g></g></g></g></svg>